<svg xmlns="http://www.w3.org/2000/svg" width="25" height="25" viewBox="0 0 25 25" fill="none">
  <mask id="mask0_897_411" style="mask-type:alpha" maskUnits="userSpaceOnUse" x="0" y="0" width="25" height="25">
    <rect x="0.5" y="0.211914" width="24" height="24" fill="#D9D9D9"/>
  </mask>
  <g mask="url(#mask0_897_411)">
    <path d="M2.34619 17.7217C2.48977 16.073 2.99566 14.5568 3.86384 13.1732C4.73201 11.7896 5.88829 10.6904 7.33269 9.87555L5.62694 6.92558C5.53334 6.78198 5.50994 6.63486 5.55674 6.48423C5.60354 6.33359 5.70386 6.21661 5.85769 6.13328C5.99102 6.05634 6.13141 6.04128 6.27884 6.08808C6.42627 6.13488 6.54615 6.22758 6.63847 6.3662L8.34614 9.32362C9.66921 8.76911 11.0538 8.49185 12.5 8.49185C13.9461 8.49185 15.3307 8.76911 16.6538 9.32362L18.3615 6.3662C18.4538 6.22758 18.5737 6.13488 18.7211 6.08808C18.8685 6.04128 19.0089 6.05634 19.1422 6.13328C19.2961 6.21661 19.3964 6.33359 19.4432 6.48423C19.49 6.63486 19.4666 6.78198 19.373 6.92558L17.6672 9.87555C19.1116 10.6904 20.2679 11.7896 21.1361 13.1732C22.0043 14.5568 22.5102 16.073 22.6537 17.7217H2.34619ZM7.88597 15.1832C8.20942 15.1832 8.48236 15.0715 8.70479 14.8482C8.92723 14.6249 9.03844 14.3515 9.03844 14.028C9.03844 13.7046 8.92677 13.4316 8.70344 13.2092C8.48011 12.9867 8.20672 12.8755 7.88327 12.8755C7.5598 12.8755 7.28685 12.9872 7.06442 13.2105C6.84198 13.4339 6.73077 13.7073 6.73077 14.0307C6.73077 14.3542 6.84243 14.6271 7.06577 14.8496C7.28912 15.072 7.56252 15.1832 7.88597 15.1832ZM17.1167 15.1832C17.4401 15.1832 17.7131 15.0715 17.9355 14.8482C18.1579 14.6249 18.2692 14.3515 18.2692 14.028C18.2692 13.7046 18.1575 13.4316 17.9342 13.2092C17.7108 12.9867 17.4374 12.8755 17.114 12.8755C16.7905 12.8755 16.5176 12.9872 16.2951 13.2105C16.0727 13.4339 15.9615 13.7073 15.9615 14.0307C15.9615 14.3542 16.0732 14.6271 16.2965 14.8496C16.5198 15.072 16.7932 15.1832 17.1167 15.1832Z" fill="white"/>
  </g>
</svg>