<svg xmlns="http://www.w3.org/2000/svg" width="25" height="25" viewBox="0 0 25 25" fill="none">
  <path d="M16.0781 6.63379C16.2148 6.63379 16.4264 6.65006 16.7129 6.68262C17.0059 6.70866 17.3379 6.78027 17.709 6.89746C18.0801 7.01465 18.4577 7.20345 18.8418 7.46387C19.2259 7.72428 19.5807 8.08887 19.9062 8.55762C19.8737 8.57715 19.75 8.66504 19.5352 8.82129C19.3268 8.97754 19.0892 9.2054 18.8223 9.50488C18.5553 9.79785 18.321 10.1722 18.1191 10.6279C17.9238 11.0771 17.8262 11.6143 17.8262 12.2393C17.8262 12.9554 17.9499 13.5609 18.1973 14.0557C18.4512 14.5505 18.7441 14.9508 19.0762 15.2568C19.4147 15.5628 19.7142 15.7874 19.9746 15.9307C20.2415 16.0674 20.3848 16.139 20.4043 16.1455C20.3978 16.1715 20.349 16.318 20.2578 16.585C20.1667 16.8454 20.0234 17.1839 19.8281 17.6006C19.6393 18.0107 19.3919 18.4404 19.0859 18.8896C18.806 19.2868 18.5163 19.6676 18.2168 20.0322C17.9238 20.3968 17.6016 20.693 17.25 20.9209C16.9049 21.1553 16.5143 21.2725 16.0781 21.2725C15.7461 21.2725 15.4629 21.2334 15.2285 21.1553C14.9941 21.0771 14.7695 20.986 14.5547 20.8818C14.3464 20.7842 14.1152 20.6963 13.8613 20.6182C13.6074 20.54 13.2917 20.501 12.9141 20.501C12.4193 20.501 12.0059 20.5661 11.6738 20.6963C11.3483 20.833 11.0391 20.9665 10.7461 21.0967C10.4531 21.2269 10.1081 21.292 9.71094 21.292C9.10547 21.292 8.57161 21.0511 8.10938 20.5693C7.65365 20.0876 7.1849 19.5114 6.70312 18.8408C6.33203 18.307 5.99349 17.6917 5.6875 16.9951C5.38151 16.2985 5.13737 15.5596 4.95508 14.7783C4.77279 13.9971 4.68164 13.2158 4.68164 12.4346C4.68164 11.1846 4.91927 10.1331 5.39453 9.28027C5.86979 8.42741 6.47852 7.78288 7.2207 7.34668C7.96289 6.91048 8.73438 6.69238 9.53516 6.69238C9.95833 6.69238 10.3555 6.76074 10.7266 6.89746C11.1042 7.03418 11.4557 7.17415 11.7812 7.31738C12.1068 7.4541 12.403 7.52246 12.6699 7.52246C12.9238 7.52246 13.2233 7.45085 13.5684 7.30762C13.9134 7.15788 14.2943 7.00814 14.7109 6.8584C15.1341 6.70866 15.5898 6.63379 16.0781 6.63379ZM15.3945 5.05176C15.069 5.44889 14.6589 5.77767 14.1641 6.03809C13.6758 6.2985 13.2135 6.42871 12.7773 6.42871C12.6862 6.42871 12.5983 6.41895 12.5137 6.39941C12.5072 6.37337 12.4974 6.3278 12.4844 6.2627C12.4779 6.19759 12.4746 6.12598 12.4746 6.04785C12.4746 5.55306 12.582 5.07129 12.7969 4.60254C13.0117 4.13379 13.2591 3.74316 13.5391 3.43066C13.8841 3.02051 14.3203 2.67871 14.8477 2.40527C15.3815 2.13184 15.8926 1.98535 16.3809 1.96582C16.4004 2.0765 16.4102 2.20345 16.4102 2.34668C16.4102 2.84798 16.3158 3.33626 16.127 3.81152C15.9382 4.28027 15.694 4.69368 15.3945 5.05176Z" fill="white"/>
</svg>