<svg width="24" height="24" viewBox="0 0 24 24" fill="none" xmlns="http://www.w3.org/2000/svg">
<g id="arrow_downward">
<mask id="mask0_877_259" style="mask-type:alpha" maskUnits="userSpaceOnUse" x="0" y="0" width="24" height="24">
<rect id="Bounding box" width="24" height="24" fill="#D9D9D9"/>
</mask>
<g mask="url(#mask0_877_259)">
<path id="arrow_downward_2" d="M11.25 16.6269V5.25C11.25 5.03718 11.3218 4.85898 11.4654 4.7154C11.609 4.5718 11.7872 4.5 12 4.5C12.2128 4.5 12.391 4.5718 12.5346 4.7154C12.6782 4.85898 12.75 5.03718 12.75 5.25V16.6269L17.9192 11.4577C18.0679 11.309 18.242 11.2356 18.4413 11.2375C18.6407 11.2394 18.8179 11.3179 18.973 11.4731C19.1179 11.6282 19.1929 11.8038 19.198 12C19.2032 12.1961 19.1282 12.3718 18.973 12.5269L12.6327 18.8673C12.5391 18.9608 12.4404 19.0269 12.3365 19.0653C12.2327 19.1038 12.1205 19.123 12 19.123C11.8795 19.123 11.7673 19.1038 11.6635 19.0653C11.5596 19.0269 11.4609 18.9608 11.3673 18.8673L5.02693 12.5269C4.88847 12.3884 4.81763 12.217 4.81443 12.0125C4.81123 11.808 4.88207 11.6282 5.02693 11.4731C5.18205 11.3179 5.36025 11.2404 5.56153 11.2404C5.76282 11.2404 5.94102 11.3179 6.09613 11.4731L11.25 16.6269Z" fill="#2D488C"/>
</g>
</g>
</svg>
