<svg width="64" height="64" viewBox="0 0 64 64" fill="none" xmlns="http://www.w3.org/2000/svg">
<rect width="64" height="64" rx="16" fill="white"/>
<path d="M25.6673 33.6748L23.7308 28.7552C23.7308 28.7552 22.1608 26.7664 20.5383 24.8299C18.9159 22.9458 15.7234 22.5794 15.7234 22.5794C13.6822 22.3178 11.6411 22.0561 9.60001 21.7421L14.9907 28.3888C19.0206 28.9122 23.2075 30.2729 25.6673 33.6748Z" fill="#961B1E"/>
<path d="M31.9477 50.213C30.1682 48.7476 28.3365 47.2298 26.557 45.7644C22.5794 42.5195 17.2411 39.641 15.7757 34.3551C15.2523 32.3663 14.9907 28.3887 14.9907 28.3887L9.60001 21.7943L9.80935 29.1738C9.86169 30.3252 10.071 31.4242 10.3851 32.5233C11.0654 34.5644 12.7925 36.1345 14.2579 37.5999C17.5028 40.7924 21.114 43.4616 24.6206 46.2878C27.0804 48.2766 29.5402 50.213 31.9477 52.2018V50.3177V50.213Z" fill="#CC2027"/>
<path d="M25.6674 33.6747C25.6674 31.0056 25.8244 28.4411 27.1851 26.0859C28.4412 23.9402 30.2207 22.213 32.0001 20.4336V11.7981L31.9478 11.8504L26.8188 17.0841C26.8188 17.0841 24.045 19.7532 23.888 22.7888C23.7309 25.7719 23.7309 28.7551 23.7309 28.7551L25.6674 33.6747Z" fill="#CC2027"/>
<path d="M32.0523 50.2131C33.8317 48.7477 35.6635 47.2299 37.4429 45.7645C41.4205 42.5196 46.7588 39.6411 48.2243 34.3551C48.7476 32.3664 49.0093 28.3888 49.0093 28.3888L54.4 21.7421L54.1906 29.1215C54.1383 30.2729 53.9289 31.372 53.6149 32.471C52.9345 34.5122 51.2074 36.0823 49.742 37.5477C46.4971 40.7402 42.8859 43.4094 39.3794 46.2355C36.9196 48.2243 34.4598 50.1608 32.0523 52.1495V50.2654V50.2131Z" fill="#961B1E"/>
<path d="M38.3327 33.6747C38.3327 31.0056 38.1757 28.4411 36.8149 26.0859C35.5589 23.9402 33.7794 22.213 32 20.4336V11.7981L32.0523 11.8504L37.1813 17.0841C37.1813 17.0841 39.9551 19.7532 40.1121 22.7888C40.2691 25.7719 40.2691 28.7551 40.2691 28.7551L38.3327 33.6747Z" fill="#961B1E"/>
<path d="M38.3328 33.6748L40.2693 28.7552C40.2693 28.7552 41.8393 26.7664 43.4618 24.8299C45.0842 22.9458 48.2767 22.5794 48.2767 22.5794C50.3179 22.3178 52.359 22.0561 54.4001 21.7421L49.0094 28.4411C45.0319 28.9122 40.7926 30.2729 38.3328 33.6748Z" fill="#CC2027"/>
</svg>
