<svg width="64" height="64" viewBox="0 0 64 64" fill="none" xmlns="http://www.w3.org/2000/svg">
<rect width="64" height="64" rx="16" fill="white"/>
<g clip-path="url(#clip0_670_5869)">
<path fill-rule="evenodd" clip-rule="evenodd" d="M22.3053 9.74219C21.5075 9.90564 20.7438 10.2049 20.0473 10.627C18.9311 11.3069 18.0127 12.2677 17.384 13.4135L9.16878 28.2871C8.88318 28.7743 8.65358 29.294 8.47998 29.8361C9.13641 29.6434 9.78569 29.4271 10.4265 29.1876C22.8877 24.5396 25.9497 16.33 25.9497 16.33C25.9497 16.33 25.6518 20.1559 20.2467 25.6249C17.6237 28.2737 14.4877 30.3558 11.2217 32.0167C11.2217 32.0167 17.5408 35.6679 20.2613 38.4153C25.6709 43.8843 25.9643 47.7113 25.9643 47.7113C25.9643 47.7113 22.8989 39.4928 10.44 34.8515C9.79851 34.6109 9.14847 34.3939 8.49118 34.2008C8.6659 34.7406 8.89662 35.2603 9.17886 35.7497L17.384 50.5953C18.0144 51.7399 18.9338 52.6991 20.0507 53.3774C20.7496 53.7985 21.5067 54.0942 22.2929 54.2566C23.1598 53.7324 24.8857 51.8878 27.9713 45.8174C28.4261 44.9236 28.8483 44.0657 29.2515 43.2459C29.7197 42.2928 30.1632 41.3911 30.6033 40.5433C28.6221 36.7308 26.7091 34.0339 22.8518 32.7571C21.9832 32.4344 21.0904 32.1813 20.1817 31.9999C21.0889 31.8207 21.9816 31.5699 22.8518 31.2462C26.7046 29.9694 28.6165 27.2657 30.6033 23.4465C30.1699 22.611 29.7309 21.7228 29.2683 20.7843C28.842 19.9151 28.4097 19.049 27.9713 18.1859C24.8913 12.1076 23.1777 10.2641 22.3041 9.74331L22.3053 9.74219Z" fill="#00BCA1"/>
<path d="M30.1845 45.8174C33.5489 39.2027 35.1181 34.5614 40.568 32.7582C41.4363 32.4343 42.3292 32.1804 43.2381 31.9989C42.3309 31.8197 41.4382 31.5688 40.568 31.2451C35.1304 29.4419 33.5601 24.8006 30.1845 18.1859C26.7069 11.3225 24.9709 9.85758 24.2205 9.59998H39.7325C41.0166 9.60504 42.2751 9.96012 43.3725 10.627C44.4891 11.3067 45.4079 12.2676 46.0369 13.4136L54.2521 28.2872C54.5366 28.7744 54.7673 29.2941 54.9398 29.8361C54.2834 29.6434 53.6341 29.4271 52.9933 29.1877C40.5321 24.5397 37.4701 16.3301 37.4701 16.3301C37.4701 16.3301 37.768 20.156 43.1731 25.6249C45.7961 28.2737 48.9321 30.3558 52.1992 32.0168C52.1992 32.0168 45.879 35.668 43.1585 38.4153C37.7501 43.8843 37.4555 47.7113 37.4555 47.7113C37.4555 47.7113 40.5209 39.4939 52.9787 34.8526C53.6697 34.595 54.3137 34.3811 54.9275 34.2019C54.753 34.7408 54.5225 35.26 54.2398 35.7509L46.0369 50.5953C45.4063 51.74 44.4864 52.6993 43.3691 53.3774C42.2712 54.0425 41.0128 54.396 39.7291 54.4H24.2093C24.944 54.1424 26.6957 52.6808 30.1845 45.8174Z" fill="#1A76D1"/>
</g>
<defs>
<clipPath id="clip0_670_5869">
<rect width="47.04" height="44.8" fill="white" transform="translate(8.47998 9.59998)"/>
</clipPath>
</defs>
</svg>
