<svg width="15" height="15" viewBox="0 0 15 15" fill="none" xmlns="http://www.w3.org/2000/svg">
<path d="M8 4.11816C9.96875 4.11816 11.5938 5.74316 11.5938 7.71191C11.5938 9.71191 9.96875 11.3057 8 11.3057C6 11.3057 4.40625 9.71191 4.40625 7.71191C4.40625 5.74316 6 4.11816 8 4.11816ZM8 10.0557C9.28125 10.0557 10.3125 9.02441 10.3125 7.71191C10.3125 6.43066 9.28125 5.39941 8 5.39941C6.6875 5.39941 5.65625 6.43066 5.65625 7.71191C5.65625 9.02441 6.71875 10.0557 8 10.0557ZM12.5625 3.99316C12.5625 4.46191 12.1875 4.83691 11.7188 4.83691C11.25 4.83691 10.875 4.46191 10.875 3.99316C10.875 3.52441 11.25 3.14941 11.7188 3.14941C12.1875 3.14941 12.5625 3.52441 12.5625 3.99316ZM14.9375 4.83691C15 5.99316 15 9.46191 14.9375 10.6182C14.875 11.7432 14.625 12.7119 13.8125 13.5557C13 14.3682 12 14.6182 10.875 14.6807C9.71875 14.7432 6.25 14.7432 5.09375 14.6807C3.96875 14.6182 3 14.3682 2.15625 13.5557C1.34375 12.7119 1.09375 11.7432 1.03125 10.6182C0.96875 9.46191 0.96875 5.99316 1.03125 4.83691C1.09375 3.71191 1.34375 2.71191 2.15625 1.89941C3 1.08691 3.96875 0.836914 5.09375 0.774414C6.25 0.711914 9.71875 0.711914 10.875 0.774414C12 0.836914 13 1.08691 13.8125 1.89941C14.625 2.71191 14.875 3.71191 14.9375 4.83691ZM13.4375 11.8369C13.8125 10.9307 13.7188 8.74316 13.7188 7.71191C13.7188 6.71191 13.8125 4.52441 13.4375 3.58691C13.1875 2.99316 12.7188 2.49316 12.125 2.27441C11.1875 1.89941 9 1.99316 8 1.99316C6.96875 1.99316 4.78125 1.89941 3.875 2.27441C3.25 2.52441 2.78125 2.99316 2.53125 3.58691C2.15625 4.52441 2.25 6.71191 2.25 7.71191C2.25 8.74316 2.15625 10.9307 2.53125 11.8369C2.78125 12.4619 3.25 12.9307 3.875 13.1807C4.78125 13.5557 6.96875 13.4619 8 13.4619C9 13.4619 11.1875 13.5557 12.125 13.1807C12.7188 12.9307 13.2188 12.4619 13.4375 11.8369Z" fill="#172D66"/>
</svg>
