<svg width="84" height="32" viewBox="0 0 84 32" fill="none" xmlns="http://www.w3.org/2000/svg">
<path fill-rule="evenodd" clip-rule="evenodd" d="M48.2167 21.2122C48.2167 18.8044 50.1686 16.8525 52.5764 16.8525C54.9843 16.8525 56.9362 18.8044 56.9362 21.2122L56.9362 25.572L52.5764 25.572C50.1686 25.572 48.2167 23.62 48.2167 21.2122ZM52.5764 10.4246C46.6186 10.4246 41.7888 15.2544 41.7888 21.2122C41.7888 27.1701 46.6186 31.9999 52.5764 31.9999L59.7682 31.9999C61.7541 31.9999 63.3641 30.3899 63.3641 28.404L63.3641 21.2122C63.3641 15.2544 58.5343 10.4246 52.5764 10.4246Z" fill="#172D66"/>
<path d="M34.5026 32C31.8932 32 29.9435 31.2816 28.6534 29.845C27.3634 28.379 26.7184 26.2094 26.7184 23.3362V3.50184C26.7184 2.38772 26.9969 1.55213 27.554 0.995067C28.1404 0.408685 28.9759 0.115494 30.0608 0.115494C31.1162 0.115494 31.9225 0.408685 32.4796 0.995067C33.066 1.55213 33.3591 2.38772 33.3591 3.50184V23.0723C33.3591 24.2744 33.6084 25.1686 34.1068 25.755C34.6345 26.3121 35.3235 26.5906 36.1738 26.5906C36.4083 26.5906 36.6282 26.5759 36.8335 26.5466C37.0387 26.5173 37.2586 26.5026 37.4931 26.5026C37.9622 26.444 38.2847 26.5906 38.4607 26.9424C38.6659 27.2649 38.7685 27.9246 38.7685 28.9215C38.7685 29.801 38.5926 30.4754 38.2408 30.9445C37.8889 31.3842 37.3465 31.6774 36.6136 31.824C36.3204 31.8534 35.9832 31.8827 35.6021 31.912C35.2209 31.9706 34.8544 32 34.5026 32Z" fill="#172D66"/>
<path fill-rule="evenodd" clip-rule="evenodd" d="M15.7709 0C13.6409 0 11.9141 1.72672 11.9141 3.85673C11.9141 5.98674 13.6409 7.71346 15.7709 7.71346H18.342C19.052 7.71346 19.6276 7.13789 19.6276 6.42789V3.85673C19.6276 1.72672 17.9009 0 15.7709 0ZM5.48625 0.000470765C3.35624 0.00047078 1.62952 1.72719 1.62952 3.8572C1.62952 5.98722 3.35624 7.71394 5.48625 7.71394H8.05739C8.76741 7.71394 9.34298 7.13836 9.34298 6.42836V3.8572C9.34298 1.72719 7.61626 0.00047075 5.48625 0.000470765Z" fill="#60E9CC"/>
<path fill-rule="evenodd" clip-rule="evenodd" d="M15.7709 0C13.6409 0 11.9141 1.72672 11.9141 3.85673C11.9141 5.98674 13.6409 7.71346 15.7709 7.71346H18.342C19.052 7.71346 19.6276 7.13789 19.6276 6.42789V3.85673C19.6276 1.72672 17.9009 0 15.7709 0ZM5.48625 0.000470765C3.35624 0.00047078 1.62952 1.72719 1.62952 3.8572C1.62952 5.98722 3.35624 7.71394 5.48625 7.71394H8.05739C8.76741 7.71394 9.34298 7.13836 9.34298 6.42836V3.8572C9.34298 1.72719 7.61626 0.00047075 5.48625 0.000470765Z" fill="url(#paint0_linear_860_293)"/>
<path fill-rule="evenodd" clip-rule="evenodd" d="M6.42789 21.2116C6.42789 18.8038 8.37981 16.8519 10.7876 16.8519C13.1954 16.8519 15.1474 18.8038 15.1474 21.2116L15.1474 25.5713L10.7876 25.5713C8.37981 25.5713 6.42789 23.6194 6.42789 21.2116ZM10.7876 10.424C4.82979 10.424 -9.03131e-08 15.2538 -2.0172e-07 21.2116C-3.13126e-07 27.1694 4.82979 31.9992 10.7876 31.9992L17.9794 31.9992C19.9653 31.9992 21.5753 30.3893 21.5753 28.4034L21.5753 21.2116C21.5753 15.2538 16.7455 10.424 10.7876 10.424Z" fill="#172D66"/>
<path d="M74.2443 18.1296C72.5417 19.8321 72.5417 22.5926 74.2443 24.2952C75.149 25.2 76.3525 25.6239 77.5373 25.5671C79.3103 25.482 81.4282 25.3127 82.6834 26.5678C83.9385 27.8229 83.95 29.9141 82.3821 30.746C78.3053 32.909 73.133 32.2738 69.6995 28.8404C65.4867 24.6276 65.4867 17.7972 69.6995 13.5844C73.133 10.1509 78.3053 9.51576 82.3821 11.6788C83.95 12.5107 83.9385 14.6018 82.6834 15.857C81.4282 17.1121 79.3103 16.9428 77.5373 16.8577C76.3525 16.8009 75.149 17.2248 74.2443 18.1296Z" fill="#172D66"/>
<defs>
<linearGradient id="paint0_linear_860_293" x1="1.62952" y1="0" x2="19.6276" y2="0" gradientUnits="userSpaceOnUse">
<stop stop-color="#00D7BD"/>
<stop offset="0.0001" stop-color="#30E3CE"/>
<stop offset="0.505208" stop-color="#68AAFF"/>
<stop offset="1" stop-color="#DE81FF"/>
</linearGradient>
</defs>
</svg>
