<svg width="32" height="32" viewBox="0 0 32 32" fill="none" xmlns="http://www.w3.org/2000/svg">
<mask id="mask0_860_301" style="mask-type:alpha" maskUnits="userSpaceOnUse" x="0" y="0" width="32" height="32">
<rect width="32" height="32" fill="#D9D9D9"/>
</mask>
<g mask="url(#mask0_860_301)">
<path d="M5.66675 23.5128C5.38341 23.5128 5.14591 23.4169 4.95425 23.2252C4.76258 23.0334 4.66675 22.7958 4.66675 22.5124C4.66675 22.2289 4.76258 21.9914 4.95425 21.8C5.14591 21.6086 5.38341 21.5128 5.66675 21.5128H26.3334C26.6167 21.5128 26.8542 21.6087 27.0459 21.8005C27.2375 21.9922 27.3334 22.2298 27.3334 22.5133C27.3334 22.7967 27.2375 23.0342 27.0459 23.2256C26.8542 23.4171 26.6167 23.5128 26.3334 23.5128H5.66675ZM5.66675 17C5.38341 17 5.14591 16.9041 4.95425 16.7124C4.76258 16.5206 4.66675 16.283 4.66675 15.9996C4.66675 15.7161 4.76258 15.4786 4.95425 15.2872C5.14591 15.0958 5.38341 15 5.66675 15H26.3334C26.6167 15 26.8542 15.0959 27.0459 15.2876C27.2375 15.4794 27.3334 15.717 27.3334 16.0004C27.3334 16.2839 27.2375 16.5214 27.0459 16.7128C26.8542 16.9042 26.6167 17 26.3334 17H5.66675ZM5.66675 10.4872C5.38341 10.4872 5.14591 10.3913 4.95425 10.1995C4.76258 10.0078 4.66675 9.7702 4.66675 9.48673C4.66675 9.20329 4.76258 8.96584 4.95425 8.7744C5.14591 8.58293 5.38341 8.4872 5.66675 8.4872H26.3334C26.6167 8.4872 26.8542 8.58307 27.0459 8.77483C27.2375 8.96659 27.3334 9.20419 27.3334 9.48763C27.3334 9.7711 27.2375 10.0086 27.0459 10.2C26.8542 10.3914 26.6167 10.4872 26.3334 10.4872H5.66675Z" fill="#2D488C"/>
</g>
</svg>
