<svg xmlns="http://www.w3.org/2000/svg" width="209" height="210" viewBox="0 0 209 210" fill="none">
  <g clip-path="url(#clip0_639_6371)">
    <path d="M8.40179 0.579346H6.08179C2.76808 0.579346 0.0817871 3.26563 0.0817871 6.57934V8.89935H8.40179V0.579346Z" fill="#2D488C"/>
    <path d="M16.7218 0.579346H8.40179V8.89935H16.7218V0.579346Z" fill="#2D488C"/>
    <path d="M25.0418 0.579346H16.7218V8.89935H25.0418V0.579346Z" fill="#2D488C"/>
    <path d="M33.3618 0.579346H25.0418V8.89935H33.3618V0.579346Z" fill="#2D488C"/>
    <path d="M41.6818 0.579346H33.3618V8.89935H41.6818V0.579346Z" fill="#2D488C"/>
    <path d="M50.0018 0.579346H41.6818V8.89935H50.0018V0.579346Z" fill="#2D488C"/>
    <path d="M58.3218 6.57934C58.3218 3.26564 55.6355 0.579346 52.3218 0.579346H50.0018V8.89935H58.3218V6.57934Z" fill="#2D488C"/>
    <path d="M74.9618 0.579346H70.8018C68.5043 0.579346 66.6418 2.44184 66.6418 4.73935C66.6418 7.03685 68.5043 8.89935 70.8018 8.89935H74.9618V0.579346Z" fill="#2D488C"/>
    <path d="M83.2818 0.579346H74.9618V8.89935H83.2818V0.579346Z" fill="#2D488C"/>
    <path d="M91.6018 0.579346H83.2818V8.89935H91.6018V0.579346Z" fill="#2D488C"/>
    <path d="M99.9218 6.57934C99.9218 3.26564 97.2355 0.579346 93.9218 0.579346H91.6018V8.89935H99.9218V6.57934Z" fill="#2D488C"/>
    <path d="M124.882 4.73935C124.882 2.44184 123.019 0.579346 120.722 0.579346C118.424 0.579346 116.562 2.44184 116.562 4.73935C116.562 7.03685 118.424 8.89935 120.722 8.89935H124.882V4.73935Z" fill="#2D488C"/>
    <path d="M141.522 4.73934C141.522 2.44184 139.659 0.579346 137.362 0.579346C135.064 0.579346 133.202 2.44184 133.202 4.73934V8.89935H141.522V4.73934Z" fill="#2D488C"/>
    <path d="M158.162 0.579346H155.842C152.528 0.579346 149.842 3.26563 149.842 6.57934V8.89935H158.162V0.579346Z" fill="#2D488C"/>
    <path d="M166.482 0.579346H158.162V8.89935H166.482V0.579346Z" fill="#2D488C"/>
    <path d="M174.802 0.579346H166.482V8.89935H174.802V0.579346Z" fill="#2D488C"/>
    <path d="M183.122 0.579346H174.802V8.89935H183.122V0.579346Z" fill="#2D488C"/>
    <path d="M191.442 0.579346H183.122V8.89935H191.442V0.579346Z" fill="#2D488C"/>
    <path d="M199.762 0.579346H191.442V8.89935H199.762V0.579346Z" fill="#2D488C"/>
    <path d="M208.082 6.57934C208.082 3.26564 205.395 0.579346 202.082 0.579346H199.762V8.89935H208.082V6.57934Z" fill="#2D488C"/>
    <path d="M8.40179 8.89935H0.0817871V17.2193H8.40179V8.89935Z" fill="#2D488C"/>
    <path d="M58.3218 8.89935H50.0018L50.0018 17.2193H58.3218V8.89935Z" fill="#2D488C"/>
    <path d="M91.6018 8.89935H83.2818V11.2193C83.2818 14.5331 85.9681 17.2193 89.2818 17.2193H91.6018V8.89935Z" fill="#2D488C"/>
    <path d="M108.242 13.0593C108.242 10.7618 106.379 8.89935 104.082 8.89935H99.9218V17.2193H104.082C106.379 17.2193 108.242 15.3568 108.242 13.0593Z" fill="#2D488C"/>
    <path d="M133.202 8.89935H124.882L124.882 17.2193H133.202V8.89935Z" fill="#2D488C"/>
    <path d="M141.522 8.89935H133.202V17.2193H141.522V8.89935Z" fill="#2D488C"/>
    <path d="M158.162 8.89935H149.842V17.2193H158.162V8.89935Z" fill="#2D488C"/>
    <path d="M208.082 8.89935H199.762V17.2193H208.082V8.89935Z" fill="#2D488C"/>
    <path d="M8.40179 17.2193H0.0817871V25.5393H8.40179V17.2193Z" fill="#2D488C"/>
    <path d="M25.0418 17.2193H22.7218C19.4081 17.2193 16.7218 19.9056 16.7218 23.2193V25.5393H25.0418V17.2193Z" fill="#2D488C"/>
    <path d="M33.3618 17.2193H25.0418V25.5393H33.3618V17.2193Z" fill="#2D488C"/>
    <path d="M41.6818 23.2193C41.6818 19.9056 38.9955 17.2193 35.6818 17.2193H33.3618V25.5393H41.6818V23.2193Z" fill="#2D488C"/>
    <path d="M58.3218 17.2193H50.0018V25.5393H58.3218V17.2193Z" fill="#2D488C"/>
    <path d="M99.9218 17.2193H91.6018V25.5393H99.9218V17.2193Z" fill="#2D488C"/>
    <path d="M124.882 17.2193H120.722C118.424 17.2193 116.562 19.0818 116.562 21.3793C116.562 23.6769 118.424 25.5393 120.722 25.5393H124.882L124.882 17.2193Z" fill="#2D488C"/>
    <path d="M133.202 17.2193H124.882L124.882 25.5393H133.202V17.2193Z" fill="#2D488C"/>
    <path d="M141.522 17.2193H133.202V25.5393H141.522V17.2193Z" fill="#2D488C"/>
    <path d="M158.162 17.2193H149.842V25.5393H158.162V17.2193Z" fill="#2D488C"/>
    <path d="M174.802 17.2193H172.482C169.168 17.2193 166.482 19.9056 166.482 23.2193V25.5393H174.802V17.2193Z" fill="#2D488C"/>
    <path d="M183.122 17.2193H174.802V25.5393H183.122V17.2193Z" fill="#2D488C"/>
    <path d="M191.442 23.2193C191.442 19.9056 188.755 17.2193 185.442 17.2193H183.122V25.5393H191.442V23.2193Z" fill="#2D488C"/>
    <path d="M208.082 17.2193H199.762V25.5393H208.082V17.2193Z" fill="#2D488C"/>
    <path d="M8.40179 25.5393H0.0817871V33.8593H8.40179V25.5393Z" fill="#2D488C"/>
    <path d="M25.0418 25.5393H16.7218V33.8593H25.0418V25.5393Z" fill="#2D488C"/>
    <path d="M33.3618 25.5393H25.0418V33.8593H33.3618V25.5393Z" fill="#2D488C"/>
    <path d="M41.6818 25.5393H33.3618V33.8593H41.6818V25.5393Z" fill="#2D488C"/>
    <path d="M58.3218 25.5393H50.0018V33.8593H58.3218V25.5393Z" fill="#2D488C"/>
    <path d="M74.9618 29.6993C74.9618 27.4018 73.0993 25.5393 70.8018 25.5393C68.5043 25.5393 66.6418 27.4018 66.6418 29.6993C66.6418 31.9968 68.5043 33.8593 70.8018 33.8593H74.9618V29.6993Z" fill="#2D488C"/>
    <path d="M91.6018 25.5393H89.2818C85.9681 25.5393 83.2818 28.2256 83.2818 31.5393V33.8593H91.6018V25.5393Z" fill="#2D488C"/>
    <path d="M99.9218 25.5393H91.6018V33.8593H99.9218V25.5393Z" fill="#2D488C"/>
    <path d="M108.242 31.5393C108.242 28.2256 105.555 25.5393 102.242 25.5393H99.9218V33.8593H108.242V31.5393Z" fill="#2D488C"/>
    <path d="M141.522 25.5393H133.202V29.6994C133.202 31.9969 135.064 33.8593 137.362 33.8593C139.659 33.8593 141.522 31.9969 141.522 29.6994V25.5393Z" fill="#2D488C"/>
    <path d="M158.162 25.5393H149.842V33.8593H158.162V25.5393Z" fill="#2D488C"/>
    <path d="M174.802 25.5393H166.482V33.8593H174.802V25.5393Z" fill="#2D488C"/>
    <path d="M183.122 25.5393H174.802V33.8593H183.122V25.5393Z" fill="#2D488C"/>
    <path d="M191.442 25.5393H183.122V33.8593H191.442V25.5393Z" fill="#2D488C"/>
    <path d="M208.082 25.5393H199.762V33.8593H208.082V25.5393Z" fill="#2D488C"/>
    <path d="M8.40179 33.8593H0.0817871V42.1793H8.40179V33.8593Z" fill="#2D488C"/>
    <path d="M25.0418 33.8593H16.7218V36.1793C16.7218 39.493 19.4081 42.1793 22.7218 42.1793H25.0418V33.8593Z" fill="#2D488C"/>
    <path d="M33.3618 33.8593H25.0418V42.1793H33.3618V33.8593Z" fill="#2D488C"/>
    <path d="M41.6818 33.8593H33.3618V42.1793H35.6818C38.9955 42.1793 41.6818 39.493 41.6818 36.1793V33.8593Z" fill="#2D488C"/>
    <path d="M58.3218 33.8593H50.0018V42.1793H58.3218V33.8593Z" fill="#2D488C"/>
    <path d="M83.2818 33.8593H74.9618V42.1793H83.2818V33.8593Z" fill="#2D488C"/>
    <path d="M116.562 39.8593C116.562 36.5456 113.875 33.8593 110.562 33.8593H108.242V42.1793H116.562V39.8593Z" fill="#2D488C"/>
    <path d="M158.162 33.8593H149.842V42.1793H158.162V33.8593Z" fill="#2D488C"/>
    <path d="M174.802 33.8593H166.482V36.1793C166.482 39.493 169.168 42.1793 172.482 42.1793H174.802V33.8593Z" fill="#2D488C"/>
    <path d="M183.122 33.8593H174.802V42.1793H183.122V33.8593Z" fill="#2D488C"/>
    <path d="M191.442 33.8593H183.122V42.1793H185.442C188.755 42.1793 191.442 39.493 191.442 36.1793V33.8593Z" fill="#2D488C"/>
    <path d="M208.082 33.8593H199.762V42.1793H208.082V33.8593Z" fill="#2D488C"/>
    <path d="M8.40179 42.1793H0.0817871V50.4993H8.40179V42.1793Z" fill="#2D488C"/>
    <path d="M58.3218 42.1793H50.0018V50.4993H58.3218V42.1793Z" fill="#2D488C"/>
    <path d="M74.9618 42.1793H72.6418C69.3281 42.1793 66.6418 44.8656 66.6418 48.1793V50.4993H74.9618V42.1793Z" fill="#2D488C"/>
    <path d="M83.2818 42.1793H74.9618V50.4993H83.2818V42.1793Z" fill="#2D488C"/>
    <path d="M99.9218 46.3393C99.9218 44.0418 98.0593 42.1793 95.7618 42.1793C93.4643 42.1793 91.6018 44.0418 91.6018 46.3393V50.4993H99.9218V46.3393Z" fill="#2D488C"/>
    <path d="M116.562 42.1793H108.242V50.4993H116.562V42.1793Z" fill="#2D488C"/>
    <path d="M124.882 48.1793C124.882 44.8656 122.195 42.1793 118.882 42.1793H116.562V50.4993H124.882V48.1793Z" fill="#2D488C"/>
    <path d="M141.522 46.3393C141.522 44.0418 139.659 42.1793 137.362 42.1793C135.064 42.1793 133.202 44.0418 133.202 46.3393V50.4993H141.522V46.3393Z" fill="#2D488C"/>
    <path d="M158.162 42.1793H149.842V50.4993H158.162V42.1793Z" fill="#2D488C"/>
    <path d="M208.082 42.1793H199.762V50.4993H208.082V42.1793Z" fill="#2D488C"/>
    <path d="M8.40179 50.4993H0.0817871V52.8193C0.0817871 56.133 2.76808 58.8193 6.08178 58.8193H8.40179V50.4993Z" fill="#2D488C"/>
    <path d="M16.7218 50.4993L8.40179 50.4993V58.8193H16.7218V50.4993Z" fill="#2D488C"/>
    <path d="M25.0418 50.4993H16.7218V58.8193H25.0418V50.4993Z" fill="#2D488C"/>
    <path d="M33.3618 50.4993H25.0418V58.8193H33.3618V50.4993Z" fill="#2D488C"/>
    <path d="M41.6818 50.4993H33.3618V58.8193H41.6818V50.4993Z" fill="#2D488C"/>
    <path d="M50.0018 50.4993L41.6818 50.4993V58.8193H50.0018L50.0018 50.4993Z" fill="#2D488C"/>
    <path d="M58.3218 50.4993H50.0018L50.0018 58.8193H52.3218C55.6355 58.8193 58.3218 56.133 58.3218 52.8193V50.4993Z" fill="#2D488C"/>
    <path d="M74.9618 50.4993H66.6418V52.8193C66.6418 56.133 69.3281 58.8193 72.6418 58.8193H74.9618V50.4993Z" fill="#2D488C"/>
    <path d="M91.6018 50.4993H83.2818V58.8193H91.6018V50.4993Z" fill="#2D488C"/>
    <path d="M108.242 50.4993H99.9218V58.8193H108.242V50.4993Z" fill="#2D488C"/>
    <path d="M124.882 50.4993H116.562V58.8193H124.882V50.4993Z" fill="#2D488C"/>
    <path d="M141.522 50.4993H133.202V58.8193H141.522V50.4993Z" fill="#2D488C"/>
    <path d="M158.162 50.4993H149.842V52.8193C149.842 56.133 152.528 58.8193 155.842 58.8193H158.162V50.4993Z" fill="#2D488C"/>
    <path d="M166.482 50.4993L158.162 50.4993V58.8193H166.482V50.4993Z" fill="#2D488C"/>
    <path d="M174.802 50.4993H166.482V58.8193H174.802V50.4993Z" fill="#2D488C"/>
    <path d="M183.122 50.4993H174.802V58.8193H183.122V50.4993Z" fill="#2D488C"/>
    <path d="M191.442 50.4993H183.122V58.8193H191.442V50.4993Z" fill="#2D488C"/>
    <path d="M199.762 50.4993L191.442 50.4993V58.8193H199.762V50.4993Z" fill="#2D488C"/>
    <path d="M208.082 50.4993H199.762V58.8193H202.082C205.395 58.8193 208.082 56.133 208.082 52.8193V50.4993Z" fill="#2D488C"/>
    <path d="M83.2818 58.8193H74.9618V67.1393H83.2818V58.8193Z" fill="#2D488C"/>
    <path d="M91.6018 58.8193H83.2818V67.1393H91.6018V58.8193Z" fill="#2D488C"/>
    <path d="M99.9218 58.8193H91.6018V67.1393H99.9218V58.8193Z" fill="#2D488C"/>
    <path d="M108.242 58.8193H99.9218V67.1393H108.242V58.8193Z" fill="#2D488C"/>
    <path d="M116.562 58.8193H108.242V67.1393H116.562V58.8193Z" fill="#2D488C"/>
    <path d="M124.882 58.8193H116.562V67.1393H124.882V58.8193Z" fill="#2D488C"/>
    <path d="M133.202 58.8193H124.882V67.1393H133.202V58.8193Z" fill="#2D488C"/>
    <path d="M141.522 58.8193H133.202V67.1393H141.522V58.8193Z" fill="#2D488C"/>
    <path d="M50.0018 67.1393H47.6818C44.3681 67.1393 41.6818 69.8256 41.6818 73.1393V75.4593H50.0018V67.1393Z" fill="#2D488C"/>
    <path d="M58.3218 71.2993C58.3218 69.0018 56.4593 67.1393 54.1618 67.1393H50.0018V75.4593H54.1618C56.4593 75.4593 58.3218 73.5968 58.3218 71.2993Z" fill="#2D488C"/>
    <path d="M74.9618 67.1393H70.8018C68.5043 67.1393 66.6418 69.0018 66.6418 71.2993C66.6418 73.5968 68.5043 75.4593 70.8018 75.4593H74.9618V67.1393Z" fill="#2D488C"/>
    <path d="M83.2818 67.1393H74.9618V75.4593H83.2818V67.1393Z" fill="#2D488C"/>
    <path d="M133.202 67.1393H124.882L124.882 71.2993C124.882 73.5968 126.744 75.4593 129.042 75.4593C131.339 75.4593 133.202 73.5968 133.202 71.2993V67.1393Z" fill="#2D488C"/>
    <path d="M149.842 73.1393C149.842 69.8256 147.155 67.1393 143.842 67.1393H141.522V69.4593C141.522 72.773 144.208 75.4593 147.522 75.4593H149.842V73.1393Z" fill="#2D488C"/>
    <path d="M166.482 71.2993C166.482 69.0018 164.619 67.1393 162.322 67.1393C160.024 67.1393 158.162 69.0018 158.162 71.2993V75.4593H166.482V71.2993Z" fill="#2D488C"/>
    <path d="M183.122 71.2993C183.122 69.0018 181.259 67.1393 178.962 67.1393C176.664 67.1393 174.802 69.0018 174.802 71.2993C174.802 73.5968 176.664 75.4593 178.962 75.4593C181.259 75.4593 183.122 73.5968 183.122 71.2993Z" fill="#2D488C"/>
    <path d="M208.082 71.2993C208.082 69.0018 206.219 67.1393 203.922 67.1393C201.624 67.1393 199.762 69.0018 199.762 71.2993V75.4593H208.082V71.2993Z" fill="#2D488C"/>
    <path d="M8.40179 79.6193C8.40179 77.3218 6.53929 75.4593 4.24179 75.4593C1.94428 75.4593 0.0817871 77.3218 0.0817871 79.6193C0.0817871 81.9168 1.94428 83.7793 4.24179 83.7793H8.40179V79.6193Z" fill="#2D488C"/>
    <path d="M25.0418 75.4593H22.7218C19.4081 75.4593 16.7218 78.1456 16.7218 81.4593V83.7793H25.0418V75.4593Z" fill="#2D488C"/>
    <path d="M33.3618 75.4593H25.0418V83.7793H33.3618V75.4593Z" fill="#2D488C"/>
    <path d="M41.6818 75.4593H33.3618V83.7793H35.6818C38.9955 83.7793 41.6818 81.093 41.6818 77.7793V75.4593Z" fill="#2D488C"/>
    <path d="M83.2818 75.4593H74.9618V83.7793H83.2818V75.4593Z" fill="#2D488C"/>
    <path d="M158.162 75.4593H149.842V77.7793C149.842 81.093 152.528 83.7793 155.842 83.7793H158.162V75.4593Z" fill="#2D488C"/>
    <path d="M166.482 75.4593H158.162V83.7793H166.482V75.4593Z" fill="#2D488C"/>
    <path d="M199.762 75.4593H197.442C194.128 75.4593 191.442 78.1456 191.442 81.4593V83.7793H199.762V75.4593Z" fill="#2D488C"/>
    <path d="M208.082 75.4593H199.762V83.7793H208.082V75.4593Z" fill="#2D488C"/>
    <path d="M16.7218 83.7793H8.40179V87.9393C8.40179 90.2368 10.2643 92.0993 12.5618 92.0993C14.8593 92.0993 16.7218 90.2368 16.7218 87.9393V83.7793Z" fill="#2D488C"/>
    <path d="M58.3218 83.7793H56.0018C52.6881 83.7793 50.0018 86.4656 50.0018 89.7793V92.0993H58.3218V83.7793Z" fill="#2D488C"/>
    <path d="M66.6418 83.7793H58.3218V92.0993H66.6418V83.7793Z" fill="#2D488C"/>
    <path d="M74.9618 83.7793H66.6418V92.0993H74.9618V83.7793Z" fill="#2D488C"/>
    <path d="M83.2818 83.7793H74.9618V92.0993H83.2818V83.7793Z" fill="#2D488C"/>
    <path d="M99.9218 83.7793H95.7618C93.4643 83.7793 91.6018 85.6418 91.6018 87.9393C91.6018 90.2368 93.4643 92.0993 95.7618 92.0993H99.9218V83.7793Z" fill="#2D488C"/>
    <path d="M108.242 83.7793H99.9218V92.0993H108.242V83.7793Z" fill="#2D488C"/>
    <path d="M116.562 83.7793H108.242V92.0993H116.562V83.7793Z" fill="#2D488C"/>
    <path d="M124.882 87.9393C124.882 85.6418 123.019 83.7793 120.722 83.7793H116.562V92.0993H120.722C123.019 92.0993 124.882 90.2368 124.882 87.9393Z" fill="#2D488C"/>
    <path d="M141.522 87.9393C141.522 85.6418 139.659 83.7793 137.362 83.7793C135.064 83.7793 133.202 85.6418 133.202 87.9393V92.0993H141.522V87.9393Z" fill="#2D488C"/>
    <path d="M174.802 89.7793C174.802 86.4656 172.115 83.7793 168.802 83.7793H166.482V92.0993H174.802V89.7793Z" fill="#2D488C"/>
    <path d="M199.762 83.7793H191.442V92.0993H199.762V83.7793Z" fill="#2D488C"/>
    <path d="M208.082 83.7793H199.762V92.0993H208.082V83.7793Z" fill="#2D488C"/>
    <path d="M33.3618 92.0993H31.0418C27.7281 92.0993 25.0418 94.7856 25.0418 98.0993V100.419H33.3618V92.0993Z" fill="#2D488C"/>
    <path d="M41.6818 92.0993H33.3618V100.419H41.6818V92.0993Z" fill="#2D488C"/>
    <path d="M50.0018 92.0993H41.6818V100.419H50.0018L50.0018 92.0993Z" fill="#2D488C"/>
    <path d="M66.6418 92.0993H58.3218V100.419H66.6418V92.0993Z" fill="#2D488C"/>
    <path d="M74.9618 92.0993H66.6418V100.419H74.9618V92.0993Z" fill="#2D488C"/>
    <path d="M83.2818 92.0993H74.9618V100.419H83.2818V92.0993Z" fill="#2D488C"/>
    <path d="M116.562 92.0993H108.242V100.419H116.562V92.0993Z" fill="#2D488C"/>
    <path d="M141.522 92.0993H133.202V100.419H135.522C138.835 100.419 141.522 97.733 141.522 94.4193V92.0993Z" fill="#2D488C"/>
    <path d="M166.482 92.0993H162.322C160.024 92.0993 158.162 93.9618 158.162 96.2593C158.162 98.5568 160.024 100.419 162.322 100.419H166.482V92.0993Z" fill="#2D488C"/>
    <path d="M174.802 92.0993H166.482V100.419H174.802V92.0993Z" fill="#2D488C"/>
    <path d="M183.122 92.0993H174.802V100.419H183.122V92.0993Z" fill="#2D488C"/>
    <path d="M191.442 92.0993H183.122V100.419H191.442V92.0993Z" fill="#2D488C"/>
    <path d="M199.762 92.0993H191.442V100.419H199.762V92.0993Z" fill="#2D488C"/>
    <path d="M208.082 92.0993H199.762V100.419H202.082C205.395 100.419 208.082 97.733 208.082 94.4193V92.0993Z" fill="#2D488C"/>
    <path d="M25.0418 100.419H22.7218C19.4081 100.419 16.7218 103.106 16.7218 106.419V108.739H25.0418V100.419Z" fill="#2D488C"/>
    <path d="M33.3618 100.419H25.0418V108.739H33.3618V100.419Z" fill="#2D488C"/>
    <path d="M58.3218 100.419H50.0018L50.0018 108.739H58.3218V100.419Z" fill="#2D488C"/>
    <path d="M66.6418 100.419H58.3218V108.739H66.6418V100.419Z" fill="#2D488C"/>
    <path d="M74.9618 100.419H66.6418V108.739H68.9618C72.2755 108.739 74.9618 106.053 74.9618 102.739V100.419Z" fill="#2D488C"/>
    <path d="M91.6018 104.579C91.6018 102.282 89.7393 100.419 87.4418 100.419H83.2818V104.579C83.2818 106.877 85.1443 108.739 87.4418 108.739C89.7393 108.739 91.6018 106.877 91.6018 104.579Z" fill="#2D488C"/>
    <path d="M108.242 100.419H104.082C101.784 100.419 99.9218 102.282 99.9218 104.579C99.9218 106.877 101.784 108.739 104.082 108.739H108.242V100.419Z" fill="#2D488C"/>
    <path d="M116.562 100.419H108.242V108.739H116.562V100.419Z" fill="#2D488C"/>
    <path d="M124.882 100.419H116.562V108.739H124.882V100.419Z" fill="#2D488C"/>
    <path d="M133.202 100.419H124.882V108.739H133.202V100.419Z" fill="#2D488C"/>
    <path d="M174.802 100.419H166.482V108.739H174.802V100.419Z" fill="#2D488C"/>
    <path d="M183.122 100.419H174.802V108.739H183.122V100.419Z" fill="#2D488C"/>
    <path d="M191.442 100.419H183.122V108.739H191.442V100.419Z" fill="#2D488C"/>
    <path d="M199.762 100.419H191.442V108.739H199.762V100.419Z" fill="#2D488C"/>
    <path d="M8.40179 108.739H4.24179C1.94428 108.739 0.0817871 110.602 0.0817871 112.899C0.0817871 115.197 1.94428 117.059 4.24179 117.059H8.40179V108.739Z" fill="#2D488C"/>
    <path d="M16.7218 108.739H8.40179V117.059H16.7218V108.739Z" fill="#2D488C"/>
    <path d="M25.0418 108.739H16.7218V117.059H25.0418V108.739Z" fill="#2D488C"/>
    <path d="M33.3618 108.739H25.0418V117.059H33.3618V108.739Z" fill="#2D488C"/>
    <path d="M41.6818 108.739H33.3618V117.059H41.6818V108.739Z" fill="#2D488C"/>
    <path d="M50.0018 108.739H41.6818V117.059H50.0018L50.0018 108.739Z" fill="#2D488C"/>
    <path d="M133.202 108.739H124.882L124.882 117.059H133.202V108.739Z" fill="#2D488C"/>
    <path d="M141.522 114.739C141.522 111.426 138.835 108.739 135.522 108.739H133.202V117.059H141.522V114.739Z" fill="#2D488C"/>
    <path d="M158.162 108.739H154.002C151.704 108.739 149.842 110.602 149.842 112.899C149.842 115.197 151.704 117.059 154.002 117.059H158.162V108.739Z" fill="#2D488C"/>
    <path d="M166.482 108.739H158.162V117.059H166.482V108.739Z" fill="#2D488C"/>
    <path d="M183.122 108.739H174.802V117.059H183.122V108.739Z" fill="#2D488C"/>
    <path d="M191.442 108.739H183.122V117.059H191.442V108.739Z" fill="#2D488C"/>
    <path d="M199.762 108.739H191.442V117.059H199.762V108.739Z" fill="#2D488C"/>
    <path d="M16.7218 117.059H8.40179V125.379H16.7218V117.059Z" fill="#2D488C"/>
    <path d="M33.3618 117.059H25.0418V125.379H33.3618V117.059Z" fill="#2D488C"/>
    <path d="M41.6818 117.059H33.3618V125.379H41.6818V117.059Z" fill="#2D488C"/>
    <path d="M50.0018 117.059H41.6818V125.379H50.0018V117.059Z" fill="#2D488C"/>
    <path d="M58.3218 117.059H50.0018V125.379H58.3218V117.059Z" fill="#2D488C"/>
    <path d="M66.6418 123.059C66.6418 119.746 63.9555 117.059 60.6418 117.059H58.3218V125.379H66.6418V123.059Z" fill="#2D488C"/>
    <path d="M83.2818 121.219C83.2818 118.922 81.4193 117.059 79.1218 117.059C76.8243 117.059 74.9618 118.922 74.9618 121.219V125.379H83.2818V121.219Z" fill="#2D488C"/>
    <path d="M99.9218 121.219C99.9218 118.922 98.0593 117.059 95.7618 117.059C93.4643 117.059 91.6018 118.922 91.6018 121.219C91.6018 123.517 93.4643 125.379 95.7618 125.379H99.9218V121.219Z" fill="#2D488C"/>
    <path d="M133.202 117.059H124.882V119.379C124.882 122.693 127.568 125.379 130.882 125.379H133.202V117.059Z" fill="#2D488C"/>
    <path d="M141.522 117.059H133.202V125.379H141.522V117.059Z" fill="#2D488C"/>
    <path d="M174.802 117.059H166.482V121.219C166.482 123.517 168.344 125.379 170.642 125.379C172.939 125.379 174.802 123.517 174.802 121.219V117.059Z" fill="#2D488C"/>
    <path d="M191.442 117.059H183.122V119.379C183.122 122.693 185.808 125.379 189.122 125.379H191.442V117.059Z" fill="#2D488C"/>
    <path d="M208.082 123.059C208.082 119.746 205.395 117.059 202.082 117.059H199.762V125.379H208.082V123.059Z" fill="#2D488C"/>
    <path d="M16.7218 125.379H8.40179V133.699H16.7218V125.379Z" fill="#2D488C"/>
    <path d="M33.3618 125.379H25.0418V133.699H33.3618V125.379Z" fill="#2D488C"/>
    <path d="M74.9618 125.379H66.6418V133.699H74.9618V125.379Z" fill="#2D488C"/>
    <path d="M83.2818 125.379H74.9618V133.699H83.2818V125.379Z" fill="#2D488C"/>
    <path d="M108.242 131.379C108.242 128.066 105.555 125.379 102.242 125.379L99.9218 125.379V133.699H108.242V131.379Z" fill="#2D488C"/>
    <path d="M141.522 125.379H133.202V133.699H141.522V125.379Z" fill="#2D488C"/>
    <path d="M158.162 129.539C158.162 127.242 156.299 125.379 154.002 125.379C151.704 125.379 149.842 127.242 149.842 129.539V133.699H158.162V129.539Z" fill="#2D488C"/>
    <path d="M199.762 125.379H191.442V133.699H199.762V125.379Z" fill="#2D488C"/>
    <path d="M208.082 125.379H199.762V133.699H208.082V125.379Z" fill="#2D488C"/>
    <path d="M8.40179 133.699H4.24178C1.94428 133.699 0.0817871 135.562 0.0817871 137.859C0.0817871 140.157 1.94428 142.019 4.24178 142.019C6.53929 142.019 8.40179 140.157 8.40179 137.859V133.699Z" fill="#2D488C"/>
    <path d="M25.0418 133.699H16.7218V137.859C16.7218 140.157 18.5843 142.019 20.8818 142.019C23.1793 142.019 25.0418 140.157 25.0418 137.859V133.699Z" fill="#2D488C"/>
    <path d="M41.6818 137.859C41.6818 135.562 39.8193 133.699 37.5218 133.699H33.3618V137.859C33.3618 140.157 35.2243 142.019 37.5218 142.019C39.8193 142.019 41.6818 140.157 41.6818 137.859Z" fill="#2D488C"/>
    <path d="M58.3218 137.859C58.3218 135.562 56.4593 133.699 54.1618 133.699C51.8643 133.699 50.0018 135.562 50.0018 137.859C50.0018 140.157 51.8643 142.019 54.1618 142.019C56.4593 142.019 58.3218 140.157 58.3218 137.859Z" fill="#2D488C"/>
    <path d="M74.9618 133.699H66.6418V142.019H74.9618V133.699Z" fill="#2D488C"/>
    <path d="M91.6018 133.699H83.2818V142.019H91.6018V133.699Z" fill="#2D488C"/>
    <path d="M99.9218 133.699H91.6018V142.019H99.9218V133.699Z" fill="#2D488C"/>
    <path d="M108.242 133.699H99.9218V142.019H108.242V133.699Z" fill="#2D488C"/>
    <path d="M116.562 133.699H108.242V142.019H116.562V133.699Z" fill="#2D488C"/>
    <path d="M124.882 139.699C124.882 136.386 122.195 133.699 118.882 133.699H116.562V142.019H124.882V139.699Z" fill="#2D488C"/>
    <path d="M141.522 133.699H133.202V142.019H141.522V133.699Z" fill="#2D488C"/>
    <path d="M149.842 133.699H141.522V142.019H149.842V133.699Z" fill="#2D488C"/>
    <path d="M158.162 133.699H149.842V142.019H158.162V133.699Z" fill="#2D488C"/>
    <path d="M166.482 133.699H158.162V142.019H166.482V133.699Z" fill="#2D488C"/>
    <path d="M174.802 139.699C174.802 136.386 172.115 133.699 168.802 133.699H166.482V142.019H174.802V139.699Z" fill="#2D488C"/>
    <path d="M199.762 133.699H191.442V142.019H199.762V133.699Z" fill="#2D488C"/>
    <path d="M208.082 133.699H199.762V142.019H202.082C205.395 142.019 208.082 139.333 208.082 136.019V133.699Z" fill="#2D488C"/>
    <path d="M74.9618 142.019H66.6418V144.339C66.6418 147.653 69.3281 150.339 72.6418 150.339H74.9618V142.019Z" fill="#2D488C"/>
    <path d="M83.2818 142.019H74.9618V150.339H83.2818V142.019Z" fill="#2D488C"/>
    <path d="M99.9218 142.019H91.6018V150.339H99.9218V142.019Z" fill="#2D488C"/>
    <path d="M108.242 142.019H99.9218V150.339H108.242V142.019Z" fill="#2D488C"/>
    <path d="M116.562 142.019H108.242V150.339H116.562V142.019Z" fill="#2D488C"/>
    <path d="M124.882 142.019H116.562V150.339H124.882V142.019Z" fill="#2D488C"/>
    <path d="M141.522 142.019H133.202V150.339H141.522V142.019Z" fill="#2D488C"/>
    <path d="M174.802 142.019H166.482V150.339H174.802V142.019Z" fill="#2D488C"/>
    <path d="M183.122 146.179C183.122 143.882 181.259 142.019 178.962 142.019H174.802V150.339H178.962C181.259 150.339 183.122 148.477 183.122 146.179Z" fill="#2D488C"/>
    <path d="M199.762 142.019H191.442V150.339H199.762V142.019Z" fill="#2D488C"/>
    <path d="M8.40179 150.339H6.08179C2.76808 150.339 0.0817871 153.026 0.0817871 156.339V158.659H8.40179V150.339Z" fill="#2D488C"/>
    <path d="M16.7218 150.339H8.40179V158.659H16.7218V150.339Z" fill="#2D488C"/>
    <path d="M25.0418 150.339H16.7218V158.659H25.0418V150.339Z" fill="#2D488C"/>
    <path d="M33.3618 150.339H25.0418V158.659H33.3618V150.339Z" fill="#2D488C"/>
    <path d="M41.6818 150.339H33.3618V158.659H41.6818V150.339Z" fill="#2D488C"/>
    <path d="M50.0018 150.339H41.6818V158.659H50.0018V150.339Z" fill="#2D488C"/>
    <path d="M58.3218 156.339C58.3218 153.026 55.6355 150.339 52.3218 150.339H50.0018V158.659H58.3218V156.339Z" fill="#2D488C"/>
    <path d="M83.2818 150.339H74.9618V158.659H83.2818V150.339Z" fill="#2D488C"/>
    <path d="M91.6018 150.339H83.2818V158.659H91.6018V150.339Z" fill="#2D488C"/>
    <path d="M108.242 150.339H99.9218V152.659C99.9218 155.973 102.608 158.659 105.922 158.659H108.242V150.339Z" fill="#2D488C"/>
    <path d="M116.562 150.339H108.242V158.659H116.562V150.339Z" fill="#2D488C"/>
    <path d="M124.882 150.339H116.562V158.659H124.882V150.339Z" fill="#2D488C"/>
    <path d="M133.202 150.339H124.882V158.659H133.202V150.339Z" fill="#2D488C"/>
    <path d="M141.522 150.339H133.202V158.659H141.522V150.339Z" fill="#2D488C"/>
    <path d="M158.162 154.499C158.162 152.202 156.299 150.339 154.002 150.339C151.704 150.339 149.842 152.202 149.842 154.499C149.842 156.797 151.704 158.659 154.002 158.659C156.299 158.659 158.162 156.797 158.162 154.499Z" fill="#2D488C"/>
    <path d="M174.802 150.339H166.482V158.659H174.802V150.339Z" fill="#2D488C"/>
    <path d="M199.762 150.339H191.442V152.659C191.442 155.973 194.128 158.659 197.442 158.659H199.762V150.339Z" fill="#2D488C"/>
    <path d="M8.40179 158.659H0.0817871V166.979H8.40179V158.659Z" fill="#2D488C"/>
    <path d="M58.3218 158.659H50.0018L50.0018 166.979H58.3218V158.659Z" fill="#2D488C"/>
    <path d="M74.9618 158.659H70.8018C68.5043 158.659 66.6418 160.522 66.6418 162.819C66.6418 165.117 68.5043 166.979 70.8018 166.979C73.0993 166.979 74.9618 165.117 74.9618 162.819V158.659Z" fill="#2D488C"/>
    <path d="M91.6018 158.659H83.2818V166.979H91.6018V158.659Z" fill="#2D488C"/>
    <path d="M116.562 158.659H108.242V160.979C108.242 164.293 110.928 166.979 114.242 166.979H116.562V158.659Z" fill="#2D488C"/>
    <path d="M124.882 158.659H116.562V166.979H124.882V158.659Z" fill="#2D488C"/>
    <path d="M133.202 158.659H124.882V166.979H133.202V158.659Z" fill="#2D488C"/>
    <path d="M141.522 158.659H133.202V166.979H141.522V158.659Z" fill="#2D488C"/>
    <path d="M174.802 158.659H166.482V166.979H174.802V158.659Z" fill="#2D488C"/>
    <path d="M183.122 164.659C183.122 161.346 180.435 158.659 177.122 158.659H174.802V166.979H183.122V164.659Z" fill="#2D488C"/>
    <path d="M208.082 162.819C208.082 160.522 206.219 158.659 203.922 158.659H199.762V162.819C199.762 165.117 201.624 166.979 203.922 166.979C206.219 166.979 208.082 165.117 208.082 162.819Z" fill="#2D488C"/>
    <path d="M8.40179 166.979H0.0817871V175.299H8.40179V166.979Z" fill="#2D488C"/>
    <path d="M25.0418 166.979H22.7218C19.4081 166.979 16.7218 169.666 16.7218 172.979V175.299H25.0418V166.979Z" fill="#2D488C"/>
    <path d="M33.3618 166.979H25.0418V175.299H33.3618V166.979Z" fill="#2D488C"/>
    <path d="M41.6818 172.979C41.6818 169.666 38.9955 166.979 35.6818 166.979H33.3618V175.299H41.6818V172.979Z" fill="#2D488C"/>
    <path d="M58.3218 166.979H50.0018V175.299H58.3218V166.979Z" fill="#2D488C"/>
    <path d="M91.6018 166.979H83.2818V171.139C83.2818 173.437 85.1443 175.299 87.4418 175.299C89.7393 175.299 91.6018 173.437 91.6018 171.139V166.979Z" fill="#2D488C"/>
    <path d="M141.522 166.979H133.202V175.299H141.522V166.979Z" fill="#2D488C"/>
    <path d="M149.842 166.979H141.522V175.299H149.842V166.979Z" fill="#2D488C"/>
    <path d="M158.162 166.979H149.842V175.299H158.162V166.979Z" fill="#2D488C"/>
    <path d="M166.482 166.979H158.162V175.299H166.482V166.979Z" fill="#2D488C"/>
    <path d="M174.802 166.979H166.482V175.299H174.802V166.979Z" fill="#2D488C"/>
    <path d="M183.122 166.979H174.802V175.299H183.122V166.979Z" fill="#2D488C"/>
    <path d="M191.442 172.979C191.442 169.666 188.755 166.979 185.442 166.979H183.122V175.299H191.442V172.979Z" fill="#2D488C"/>
    <path d="M8.40179 175.299H0.0817871V183.619H8.40179V175.299Z" fill="#2D488C"/>
    <path d="M25.0418 175.299H16.7218V183.619H25.0418V175.299Z" fill="#2D488C"/>
    <path d="M33.3618 175.299H25.0418V183.619H33.3618V175.299Z" fill="#2D488C"/>
    <path d="M41.6818 175.299H33.3618V183.619H41.6818V175.299Z" fill="#2D488C"/>
    <path d="M58.3218 175.299H50.0018V183.619H58.3218V175.299Z" fill="#2D488C"/>
    <path d="M108.242 175.299H104.082C101.784 175.299 99.9218 177.162 99.9218 179.459C99.9218 181.757 101.784 183.619 104.082 183.619H108.242V175.299Z" fill="#2D488C"/>
    <path d="M116.562 181.299C116.562 177.986 113.875 175.299 110.562 175.299H108.242V183.619H116.562V181.299Z" fill="#2D488C"/>
    <path d="M133.202 175.299H130.882C127.568 175.299 124.882 177.986 124.882 181.299V183.619H133.202V175.299Z" fill="#2D488C"/>
    <path d="M141.522 175.299H133.202V183.619H141.522V175.299Z" fill="#2D488C"/>
    <path d="M149.842 175.299H141.522V183.619H149.842V175.299Z" fill="#2D488C"/>
    <path d="M166.482 175.299H158.162V183.619H166.482V175.299Z" fill="#2D488C"/>
    <path d="M191.442 175.299H183.122V183.619H191.442V175.299Z" fill="#2D488C"/>
    <path d="M199.762 179.459C199.762 177.162 197.899 175.299 195.602 175.299H191.442V183.619H195.602C197.899 183.619 199.762 181.757 199.762 179.459Z" fill="#2D488C"/>
    <path d="M8.40179 183.619H0.0817871V191.939H8.40179V183.619Z" fill="#2D488C"/>
    <path d="M25.0418 183.619H16.7218V185.939C16.7218 189.253 19.4081 191.939 22.7218 191.939H25.0418V183.619Z" fill="#2D488C"/>
    <path d="M33.3618 183.619H25.0418V191.939H33.3618V183.619Z" fill="#2D488C"/>
    <path d="M41.6818 183.619H33.3618V191.939H35.6818C38.9955 191.939 41.6818 189.253 41.6818 185.939V183.619Z" fill="#2D488C"/>
    <path d="M58.3218 183.619H50.0018V191.939H58.3218V183.619Z" fill="#2D488C"/>
    <path d="M116.562 183.619H108.242V191.939H116.562V183.619Z" fill="#2D488C"/>
    <path d="M124.882 183.619H116.562V191.939H124.882L124.882 183.619Z" fill="#2D488C"/>
    <path d="M141.522 183.619H133.202V191.939H141.522V183.619Z" fill="#2D488C"/>
    <path d="M149.842 183.619H141.522V191.939H149.842V183.619Z" fill="#2D488C"/>
    <path d="M166.482 183.619H158.162V191.939H160.482C163.795 191.939 166.482 189.253 166.482 185.939V183.619Z" fill="#2D488C"/>
    <path d="M183.122 183.619H180.802C177.488 183.619 174.802 186.306 174.802 189.619V191.939H183.122V183.619Z" fill="#2D488C"/>
    <path d="M191.442 183.619H183.122V191.939H185.442C188.755 191.939 191.442 189.253 191.442 185.939V183.619Z" fill="#2D488C"/>
    <path d="M8.40179 191.939H0.0817871V200.259H8.40179V191.939Z" fill="#2D488C"/>
    <path d="M58.3218 191.939H50.0018V200.259H58.3218V191.939Z" fill="#2D488C"/>
    <path d="M91.6018 196.099C91.6018 193.802 89.7393 191.939 87.4418 191.939C85.1443 191.939 83.2818 193.802 83.2818 196.099V200.259H91.6018V196.099Z" fill="#2D488C"/>
    <path d="M108.242 191.939H105.922C102.608 191.939 99.9218 194.626 99.9218 197.939V200.259H108.242V191.939Z" fill="#2D488C"/>
    <path d="M133.202 191.939H124.882L124.882 200.259H127.202C130.515 200.259 133.202 197.573 133.202 194.259V191.939Z" fill="#2D488C"/>
    <path d="M158.162 191.939H149.842V200.259H158.162V191.939Z" fill="#2D488C"/>
    <path d="M183.122 191.939H174.802V194.259C174.802 197.573 177.488 200.259 180.802 200.259H183.122V191.939Z" fill="#2D488C"/>
    <path d="M208.082 196.099C208.082 193.802 206.219 191.939 203.922 191.939C201.624 191.939 199.762 193.802 199.762 196.099V200.259H208.082V196.099Z" fill="#2D488C"/>
    <path d="M8.40179 200.259H0.0817871V202.579C0.0817871 205.893 2.76808 208.579 6.08178 208.579H8.40179V200.259Z" fill="#2D488C"/>
    <path d="M16.7218 200.259H8.40179V208.579H16.7218V200.259Z" fill="#2D488C"/>
    <path d="M25.0418 200.259H16.7218V208.579H25.0418V200.259Z" fill="#2D488C"/>
    <path d="M33.3618 200.259H25.0418V208.579H33.3618V200.259Z" fill="#2D488C"/>
    <path d="M41.6818 200.259H33.3618V208.579H41.6818V200.259Z" fill="#2D488C"/>
    <path d="M50.0018 200.259H41.6818V208.579H50.0018L50.0018 200.259Z" fill="#2D488C"/>
    <path d="M58.3218 200.259H50.0018L50.0018 208.579H52.3218C55.6355 208.579 58.3218 205.893 58.3218 202.579V200.259Z" fill="#2D488C"/>
    <path d="M83.2818 200.259H79.1218C76.8243 200.259 74.9618 202.122 74.9618 204.419C74.9618 206.717 76.8243 208.579 79.1218 208.579H83.2818V200.259Z" fill="#2D488C"/>
    <path d="M91.6018 200.259H83.2818V208.579H85.6018C88.9155 208.579 91.6018 205.893 91.6018 202.579V200.259Z" fill="#2D488C"/>
    <path d="M108.242 200.259H99.9218V202.579C99.9218 205.893 102.608 208.579 105.922 208.579H108.242V200.259Z" fill="#2D488C"/>
    <path d="M116.562 200.259H108.242V208.579H116.562V200.259Z" fill="#2D488C"/>
    <path d="M124.882 200.259H116.562V208.579H118.882C122.195 208.579 124.882 205.893 124.882 202.579L124.882 200.259Z" fill="#2D488C"/>
    <path d="M149.842 200.259H145.682C143.384 200.259 141.522 202.122 141.522 204.419C141.522 206.717 143.384 208.579 145.682 208.579H149.842V200.259Z" fill="#2D488C"/>
    <path d="M158.162 200.259H149.842V208.579H158.162V200.259Z" fill="#2D488C"/>
    <path d="M166.482 204.419C166.482 202.122 164.619 200.259 162.322 200.259H158.162V208.579H162.322C164.619 208.579 166.482 206.717 166.482 204.419Z" fill="#2D488C"/>
    <path d="M191.442 204.419C191.442 202.122 189.579 200.259 187.282 200.259H183.122V204.419C183.122 206.717 184.984 208.579 187.282 208.579C189.579 208.579 191.442 206.717 191.442 204.419Z" fill="#2D488C"/>
    <path d="M208.082 200.259H199.762V204.419C199.762 206.717 201.624 208.579 203.922 208.579C206.219 208.579 208.082 206.717 208.082 204.419V200.259Z" fill="#2D488C"/>
  </g>
  <defs>
    <clipPath id="clip0_639_6371">
      <rect width="209" height="209" fill="white" transform="translate(0 0.428223)"/>
    </clipPath>
  </defs>
</svg>