<svg width="18" height="13" viewBox="0 0 18 13" fill="none" xmlns="http://www.w3.org/2000/svg">
<path d="M17.1562 2.61816C17.5312 3.93066 17.5312 6.74316 17.5312 6.74316C17.5312 6.74316 17.5312 9.52441 17.1562 10.8682C16.9688 11.6182 16.375 12.1807 15.6562 12.3682C14.3125 12.7119 9 12.7119 9 12.7119C9 12.7119 3.65625 12.7119 2.3125 12.3682C1.59375 12.1807 1 11.6182 0.8125 10.8682C0.4375 9.52441 0.4375 6.74316 0.4375 6.74316C0.4375 6.74316 0.4375 3.93066 0.8125 2.61816C1 1.86816 1.59375 1.27441 2.3125 1.08691C3.65625 0.711914 9 0.711914 9 0.711914C9 0.711914 14.3125 0.711914 15.6562 1.08691C16.375 1.27441 16.9688 1.86816 17.1562 2.61816ZM7.25 9.27441L11.6875 6.74316L7.25 4.21191V9.27441Z" fill="#172D66"/>
</svg>
